# xmcd CD database file
#
# Track frame offsets:
#	150
#	13996
#	26284
#	34114
#	51678
#	64708
#	76215
#	89772
#	104431
#	123483
#	138468
#	143446
#	157815
#	169871
#	183608
#	194876
#
# Disc length: 2840 seconds
#
# Revision: 0
# Processed by: cddbd v1.5.2PL0 Copyright (c) Steve Scherf et al.
# Submitted via: CDex 1.79
#
DISCID=e50b1610
DTITLE=Frank Sinatra - The Real... Frank Sinatra [CD 2)
DYEAR=1900
DGENRE=Jazz
TTITLE0=Night And Day
TTITLE1=April In Paris
TTITLE2=A Foggy Day
TTITLE3=Begin The Beguine
TTITLE4=Embraceable You
TTITLE5=As Time Goes By
TTITLE6=You Go To My Head
TTITLE7=Autumn In New York
TTITLE8=Stormy Weather
TTITLE9=Someone To Watch Over Me
TTITLE10='S Wonderful
TTITLE11=Melancholy Mood
TTITLE12=The Nearness Of You
TTITLE13=I Believe
TTITLE14=It Had To Be You
TTITLE15=Ol' Man River
EXTD=
EXTT0=
EXTT1=
EXTT2=
EXTT3=
EXTT4=
EXTT5=
EXTT6=
EXTT7=
EXTT8=
EXTT9=
EXTT10=
EXTT11=
EXTT12=
EXTT13=
EXTT14=
EXTT15=
PLAYORDER=
